<svg width="26" height="29" viewBox="0 0 26 29" fill="none" xmlns="http://www.w3.org/2000/svg">
<path d="M6.52015 20.5154C6.55267 20.6329 6.60802 20.7429 6.68305 20.8391C6.75808 20.9352 6.85131 21.0157 6.95743 21.0758C7.06354 21.1359 7.18046 21.1746 7.30151 21.1895C7.42256 21.2044 7.54536 21.1954 7.66292 21.1629C7.78047 21.1304 7.89046 21.075 7.98662 21C8.08278 20.9249 8.16322 20.8317 8.22335 20.7256C8.28348 20.6195 8.32212 20.5026 8.33706 20.3815C8.352 20.2605 8.34296 20.1377 8.31044 20.0201L6.52015 20.5154ZM1.18892 7.46583C1.0709 7.43136 0.947218 7.42067 0.825039 7.43437C0.70286 7.44808 0.58462 7.48592 0.477179 7.54568C0.369738 7.60545 0.275235 7.68595 0.199153 7.78253C0.123072 7.87911 0.0669259 7.98983 0.0339739 8.10828C0.00102193 8.22672 -0.00808033 8.35054 0.00719536 8.47253C0.022471 8.59452 0.0618205 8.71227 0.122961 8.81893C0.184101 8.92559 0.265814 9.01906 0.36336 9.09389C0.460906 9.16873 0.572342 9.22345 0.691202 9.25488L1.18892 7.46583ZM22.2217 21.0849C22.3426 21.0569 22.4567 21.005 22.5572 20.9322C22.6577 20.8594 22.7426 20.7672 22.8068 20.6611C22.8711 20.5549 22.9134 20.4369 22.9313 20.3141C22.9492 20.1913 22.9424 20.0662 22.9111 19.9461C22.8798 19.826 22.8247 19.7134 22.7492 19.6149C22.6737 19.5165 22.5791 19.4342 22.4712 19.3728C22.3634 19.3115 22.2443 19.2725 22.121 19.258C21.9978 19.2435 21.8729 19.2538 21.7537 19.2884L22.2217 21.0849ZM9.85187 23.3555C10.2357 24.7422 9.39377 26.2069 7.90311 26.5944L8.36987 28.3909C10.8176 27.7557 12.3132 25.2932 11.6422 22.8603L9.85187 23.3555ZM7.90311 26.5944C6.40253 26.9844 4.89701 26.1128 4.51073 24.7137L2.72044 25.209C3.38901 27.6294 5.93206 29.0248 8.36987 28.3909L7.90311 26.5944ZM4.51073 24.7137C4.12692 23.3271 4.96882 21.8624 6.45949 21.4749L5.99272 19.6796C3.54501 20.3148 2.04815 22.7761 2.72044 25.209L4.51073 24.7137ZM6.45949 21.4749C7.96006 21.0849 9.46558 21.9565 9.85187 23.3555L11.6422 22.8603C10.9736 20.4398 8.43053 19.0445 5.99272 19.6784L6.45949 21.4749ZM8.31044 20.0201L5.64606 10.3754L3.85577 10.8706L6.52015 20.5154L8.31044 20.0201ZM3.29863 8.05021L1.18892 7.46583L0.691202 9.25488L2.80215 9.84049L3.29863 8.05021ZM5.64606 10.3754C5.48897 9.81802 5.19017 9.3109 4.77878 8.90341C4.36738 8.49592 3.85743 8.20197 3.29863 8.05021L2.80463 9.84049C3.33082 9.98659 3.72206 10.3865 3.85577 10.8706L5.64606 10.3754ZM10.9822 24.0068L22.2217 21.0849L21.7549 19.2884L10.5142 22.2103L10.9822 24.0068Z" fill="#210035"/>
<path d="M8.30172 9.82745C7.49496 6.81737 7.09241 5.31147 7.77774 4.1263C8.46141 2.93942 9.96682 2.53636 12.9776 1.72853L16.1714 0.874383C19.1822 0.0682633 20.6876 -0.336511 21.8737 0.347833C23.0597 1.03389 23.4639 2.53808 24.269 5.54988L25.1257 8.74348C25.9324 11.7536 26.3366 13.2595 25.6513 14.4463C24.966 15.6315 23.4606 16.0363 20.4498 16.8424L17.256 17.6983C14.2452 18.5044 12.7398 18.9074 11.5537 18.2231C10.3677 17.537 9.96515 16.0329 9.15839 13.0228L8.30172 9.82745Z" fill="#210035"/>
<path d="M12.5499 9.48441C12.3638 9.36906 12.2312 9.18451 12.1811 8.97136C12.1311 8.75821 12.1677 8.53391 12.283 8.34778L15.0508 3.88098C15.1661 3.69488 15.3507 3.56222 15.5638 3.51216C15.777 3.4621 16.0013 3.49875 16.1874 3.61405L20.6542 6.38183C20.8362 6.49904 20.9649 6.68307 21.0126 6.89426C21.0603 7.10546 21.0231 7.32692 20.909 7.51096C20.795 7.695 20.6132 7.82689 20.4029 7.87822C20.1926 7.92955 19.9705 7.89621 19.7845 7.78539L17.0283 6.13665L18.8218 13.7731C18.8718 13.9863 18.8351 14.2107 18.7198 14.3968C18.6045 14.583 18.4199 14.7157 18.2067 14.7658C17.9935 14.8158 17.7692 14.7792 17.583 14.6638C17.3968 14.5485 17.2641 14.3639 17.2141 14.1507L15.4207 6.51421L13.6866 9.21747C13.5712 9.40357 13.3867 9.53624 13.1735 9.58629C12.9604 9.63635 12.7361 9.5997 12.5499 9.48441Z" fill="white"/>
</svg>
