<svg width="45" height="45" viewBox="0 0 45 45" fill="none" xmlns="http://www.w3.org/2000/svg">
<circle cx="22.5" cy="22.5" r="22.5" fill="#FFB5B5"/>
<circle cx="22.5" cy="22.5" r="17.5" fill="#FF9090"/>
<ellipse cx="22.5" cy="22" rx="4.5" ry="7" fill="white"/>
<path d="M22 27C22.2833 27 22.521 26.904 22.713 26.712C22.905 26.52 23.0007 26.2827 23 26C23 25.7167 22.904 25.479 22.712 25.287C22.52 25.095 22.2827 24.9993 22 25C21.7167 25 21.479 25.096 21.287 25.288C21.095 25.48 20.9993 25.7173 21 26C21 26.2833 21.096 26.521 21.288 26.713C21.48 26.905 21.7173 27.0007 22 27ZM21 23H23V17H21V23ZM22 32C20.6167 32 19.3167 31.7373 18.1 31.212C16.8833 30.6867 15.825 29.9743 14.925 29.075C14.025 28.175 13.3127 27.1167 12.788 25.9C12.2633 24.6833 12.0007 23.3833 12 22C12 20.6167 12.2627 19.3167 12.788 18.1C13.3133 16.8833 14.0257 15.825 14.925 14.925C15.825 14.025 16.8833 13.3127 18.1 12.788C19.3167 12.2633 20.6167 12.0007 22 12C23.3833 12 24.6833 12.2627 25.9 12.788C27.1167 13.3133 28.175 14.0257 29.075 14.925C29.975 15.825 30.6877 16.8833 31.213 18.1C31.7383 19.3167 32.0007 20.6167 32 22C32 23.3833 31.7373 24.6833 31.212 25.9C30.6867 27.1167 29.9743 28.175 29.075 29.075C28.175 29.975 27.1167 30.6877 25.9 31.213C24.6833 31.7383 23.3833 32.0007 22 32Z" fill="#EF5454"/>
</svg>
