<svg width="101" height="31" viewBox="0 0 101 31" fill="none" xmlns="http://www.w3.org/2000/svg">
<path d="M6.52015 22.5154C6.55267 22.6329 6.60802 22.7429 6.68305 22.8391C6.75808 22.9352 6.85131 23.0157 6.95743 23.0758C7.06354 23.1359 7.18046 23.1746 7.30151 23.1895C7.42256 23.2044 7.54536 23.1954 7.66292 23.1629C7.78047 23.1304 7.89046 23.075 7.98662 23C8.08278 22.9249 8.16322 22.8317 8.22335 22.7256C8.28348 22.6195 8.32212 22.5026 8.33706 22.3815C8.352 22.2605 8.34296 22.1377 8.31044 22.0201L6.52015 22.5154ZM1.18892 9.46583C1.0709 9.43136 0.947218 9.42067 0.825039 9.43437C0.70286 9.44808 0.58462 9.48592 0.477179 9.54568C0.369738 9.60545 0.275235 9.68595 0.199153 9.78253C0.123072 9.87911 0.066926 9.98983 0.0339739 10.1083C0.00102193 10.2267 -0.00808033 10.3505 0.00719536 10.4725C0.022471 10.5945 0.0618205 10.7123 0.122961 10.8189C0.184101 10.9256 0.265814 11.0191 0.36336 11.0939C0.460906 11.1687 0.572342 11.2234 0.691202 11.2549L1.18892 9.46583ZM22.2217 23.0849C22.3426 23.0569 22.4567 23.005 22.5572 22.9322C22.6577 22.8594 22.7426 22.7672 22.8068 22.6611C22.8711 22.5549 22.9134 22.4369 22.9313 22.3141C22.9492 22.1913 22.9424 22.0662 22.9111 21.9461C22.8798 21.826 22.8247 21.7134 22.7492 21.6149C22.6737 21.5165 22.5791 21.4342 22.4713 21.3728C22.3634 21.3115 22.2443 21.2725 22.121 21.258C21.9978 21.2435 21.8729 21.2538 21.7537 21.2884L22.2217 23.0849ZM9.85187 25.3555C10.2357 26.7422 9.39377 28.2069 7.90311 28.5944L8.36987 30.3909C10.8176 29.7557 12.3132 27.2932 11.6422 24.8603L9.85187 25.3555ZM7.90311 28.5944C6.40253 28.9844 4.89701 28.1128 4.51073 26.7137L2.72044 27.209C3.38901 29.6294 5.93206 31.0248 8.36987 30.3909L7.90311 28.5944ZM4.51073 26.7137C4.12692 25.3271 4.96882 23.8624 6.45949 23.4749L5.99272 21.6796C3.54501 22.3148 2.04815 24.7761 2.72044 27.209L4.51073 26.7137ZM6.45949 23.4749C7.96006 23.0849 9.46558 23.9565 9.85187 25.3555L11.6422 24.8603C10.9736 22.4398 8.43053 21.0445 5.99272 21.6784L6.45949 23.4749ZM8.31044 22.0201L5.64606 12.3754L3.85577 12.8706L6.52015 22.5154L8.31044 22.0201ZM3.29863 10.0502L1.18892 9.46583L0.691202 11.2549L2.80215 11.8405L3.29863 10.0502ZM5.64606 12.3754C5.48897 11.818 5.19017 11.3109 4.77878 10.9034C4.36738 10.4959 3.85743 10.202 3.29863 10.0502L2.80463 11.8405C3.33082 11.9866 3.72206 12.3865 3.85577 12.8706L5.64606 12.3754ZM10.9822 26.0068L22.2217 23.0849L21.7549 21.2884L10.5142 24.2103L10.9822 26.0068Z" fill="#210035"/>
<path d="M8.30172 11.8275C7.49496 8.81737 7.09241 7.31147 7.77774 6.1263C8.46141 4.93942 9.96682 4.53636 12.9776 3.72853L16.1714 2.87438C19.1822 2.06826 20.6876 1.66349 21.8737 2.34783C23.0597 3.03389 23.4639 4.53808 24.269 7.54988L25.1257 10.7435C25.9324 13.7536 26.3366 15.2595 25.6513 16.4463C24.966 17.6315 23.4606 18.0363 20.4498 18.8424L17.256 19.6983C14.2452 20.5044 12.7398 20.9074 11.5537 20.2231C10.3677 19.537 9.96515 18.0329 9.15839 15.0228L8.30172 11.8275Z" fill="#210035"/>
<path d="M12.5499 11.4844C12.3638 11.3691 12.2312 11.1845 12.1811 10.9714C12.1311 10.7582 12.1677 10.5339 12.283 10.3478L15.0508 5.88098C15.1661 5.69488 15.3507 5.56222 15.5638 5.51216C15.777 5.4621 16.0013 5.49875 16.1874 5.61405L20.6542 8.38183C20.8362 8.49904 20.9649 8.68307 21.0126 8.89426C21.0603 9.10546 21.0231 9.32692 20.909 9.51096C20.795 9.695 20.6132 9.82689 20.4029 9.87822C20.1926 9.92955 19.9705 9.89621 19.7845 9.78539L17.0283 8.13665L18.8218 15.7731C18.8718 15.9863 18.8351 16.2107 18.7198 16.3968C18.6045 16.583 18.4199 16.7157 18.2067 16.7658C17.9935 16.8158 17.7692 16.7792 17.583 16.6638C17.3968 16.5485 17.2641 16.3639 17.2141 16.1507L15.4207 8.51421L13.6866 11.2175C13.5712 11.4036 13.3867 11.5362 13.1735 11.5863C12.9604 11.6364 12.7361 11.5997 12.5499 11.4844Z" fill="white"/>
<path d="M35.4929 5.78267C35.4588 5.43892 35.3125 5.17187 35.054 4.98153C34.7955 4.79119 34.4446 4.69602 34.0014 4.69602C33.7003 4.69602 33.446 4.73864 33.2386 4.82386C33.0313 4.90625 32.8722 5.02131 32.7614 5.16903C32.6534 5.31676 32.5994 5.48438 32.5994 5.67188C32.5938 5.82812 32.6264 5.96449 32.6974 6.08097C32.7713 6.19744 32.8722 6.2983 33 6.38352C33.1278 6.46591 33.2756 6.53835 33.4432 6.60085C33.6108 6.66051 33.7898 6.71165 33.9801 6.75426L34.7642 6.94176C35.1449 7.02699 35.4943 7.14062 35.8125 7.28267C36.1307 7.42472 36.4063 7.59943 36.6392 7.80682C36.8722 8.0142 37.0526 8.25852 37.1804 8.53977C37.3111 8.82102 37.3778 9.14347 37.3807 9.5071C37.3778 10.0412 37.2415 10.5043 36.9716 10.8963C36.7045 11.2855 36.3182 11.5881 35.8125 11.804C35.3097 12.017 34.7031 12.1236 33.9929 12.1236C33.2884 12.1236 32.6747 12.0156 32.152 11.7997C31.6321 11.5838 31.2259 11.2642 30.9332 10.8409C30.6435 10.4148 30.4915 9.88778 30.4773 9.25994H32.2628C32.2827 9.55256 32.3665 9.79687 32.5142 9.9929C32.6648 10.1861 32.8651 10.3324 33.1151 10.4318C33.3679 10.5284 33.6534 10.5767 33.9716 10.5767C34.2841 10.5767 34.5554 10.5312 34.7855 10.4403C35.0185 10.3494 35.1989 10.223 35.3267 10.0611C35.4545 9.89915 35.5185 9.71307 35.5185 9.50284C35.5185 9.30682 35.4602 9.14205 35.3438 9.00852C35.2301 8.875 35.0625 8.76136 34.8409 8.66761C34.6222 8.57386 34.3537 8.48864 34.0355 8.41193L33.0852 8.1733C32.3494 7.99432 31.7685 7.71449 31.3423 7.33381C30.9162 6.95312 30.7045 6.44034 30.7074 5.79545C30.7045 5.26705 30.8452 4.8054 31.1293 4.41051C31.4162 4.01562 31.8097 3.70739 32.3097 3.4858C32.8097 3.2642 33.3778 3.15341 34.0142 3.15341C34.6619 3.15341 35.2273 3.2642 35.7102 3.4858C36.196 3.70739 36.5739 4.01562 36.8438 4.41051C37.1136 4.8054 37.2528 5.26278 37.2614 5.78267H35.4929ZM38.6218 12V3.27273H40.467V6.87358H44.2127V3.27273H46.0536V12H44.2127V8.39489H40.467V12H38.6218ZM49.4201 3.27273V12H47.5749V3.27273H49.4201ZM50.9382 12V3.27273H56.7166V4.79403H52.7834V6.87358H56.3331V8.39489H52.7834V12H50.9382ZM57.6254 4.79403V3.27273H64.793V4.79403H62.1211V12H60.2972V4.79403H57.6254ZM33.8523 27H30.7585V18.2727H33.8778C34.7557 18.2727 35.5114 18.4474 36.1449 18.7969C36.7784 19.1435 37.2656 19.642 37.6065 20.2926C37.9503 20.9432 38.1222 21.7216 38.1222 22.6278C38.1222 23.5369 37.9503 24.3182 37.6065 24.9716C37.2656 25.625 36.7756 26.1264 36.1364 26.4759C35.5 26.8253 34.7386 27 33.8523 27ZM32.6037 25.419H33.7756C34.321 25.419 34.7798 25.3224 35.152 25.1293C35.527 24.9332 35.8082 24.6307 35.9957 24.2216C36.1861 23.8097 36.2812 23.2784 36.2812 22.6278C36.2812 21.983 36.1861 21.456 35.9957 21.0469C35.8082 20.6378 35.5284 20.3366 35.1562 20.1435C34.7841 19.9503 34.3253 19.8537 33.7798 19.8537H32.6037V25.419ZM39.489 27V18.2727H45.3697V19.794H41.3342V21.8736H45.0671V23.3949H41.3342V25.4787H45.3867V27H39.489ZM46.8366 27V18.2727H48.6818V25.4787H52.4233V27H46.8366ZM55.4904 18.2727V27H53.6452V18.2727H55.4904ZM58.5852 18.2727L60.6946 24.9034H60.7756L62.8892 18.2727H64.9347L61.9261 27H59.5483L56.5355 18.2727H58.5852ZM65.9851 27V18.2727H71.8658V19.794H67.8303V21.8736H71.5632V23.3949H67.8303V25.4787H71.8828V27H65.9851ZM73.3327 27V18.2727H76.7759C77.435 18.2727 77.9975 18.3906 78.4634 18.6264C78.9322 18.8594 79.2887 19.1903 79.533 19.6193C79.7802 20.0455 79.9038 20.5469 79.9038 21.1236C79.9038 21.7031 79.7788 22.2017 79.5288 22.6193C79.2788 23.0341 78.9165 23.3523 78.4421 23.5739C77.9705 23.7955 77.3995 23.9062 76.729 23.9062H74.4237V22.4233H76.4308C76.783 22.4233 77.0756 22.375 77.3086 22.2784C77.5415 22.1818 77.7148 22.0369 77.8285 21.8438C77.945 21.6506 78.0032 21.4105 78.0032 21.1236C78.0032 20.8338 77.945 20.5895 77.8285 20.3906C77.7148 20.1918 77.5401 20.0412 77.3043 19.9389C77.0714 19.8338 76.7773 19.7812 76.4222 19.7812H75.1779V27H73.3327ZM78.0458 23.0284L80.2148 27H78.1779L76.0558 23.0284H78.0458ZM80.3331 18.2727H82.3999L84.3899 22.0312H84.4751L86.4652 18.2727H88.532L85.3487 23.9148V27H83.5163V23.9148L80.3331 18.2727Z" fill="#210035"/>
</svg>
