<svg width="45" height="45" viewBox="0 0 45 45" fill="none" xmlns="http://www.w3.org/2000/svg">
<circle cx="22.5" cy="22.5" r="22.5" fill="#D5A5FF"/>
<circle cx="22.5" cy="22.5" r="17.5" fill="#BA6BFF"/>
<circle cx="22" cy="22" r="10" fill="#7E22CE"/>
<path d="M28.5625 21.2037H21.9105C21.7217 20.4178 21.2496 19.7293 20.5846 19.2699C19.9196 18.8106 19.1085 18.6128 18.3067 18.7144C17.5049 18.816 16.7688 19.2099 16.2395 19.8206C15.7101 20.4313 15.4247 21.2159 15.4379 22.024C15.4364 22.8237 15.7269 23.5965 16.255 24.1971C16.7831 24.7977 17.5124 25.1847 18.3058 25.2854C19.0991 25.3862 19.902 25.1937 20.5634 24.7442C21.2248 24.2946 21.6993 23.619 21.8977 22.8443H24.4611V24.4848H25.6915V22.8443H26.922V25.3051H28.5625V21.2037ZM20.3596 21.8958C20.3601 21.9172 20.3601 21.9385 20.3596 21.9599C20.3601 21.9812 20.3601 22.0026 20.3596 22.024C20.3596 22.4591 20.1868 22.8763 19.8791 23.184C19.5715 23.4917 19.1542 23.6645 18.7191 23.6645C18.284 23.6645 17.8667 23.4917 17.559 23.184C17.2514 22.8763 17.0785 22.4591 17.0785 22.024C17.0627 21.5896 17.2199 21.1667 17.5154 20.848C17.811 20.5293 18.2208 20.3408 18.6552 20.3238C19.0895 20.3069 19.5128 20.4628 19.8323 20.7575C20.1518 21.0521 20.3415 21.4615 20.3596 21.8958V21.8958Z" fill="white"/>
</svg>
